<?xml version="1.0" standalone="no"?><!DOCTYPE svg PUBLIC "-//W3C//DTD SVG 1.1//EN" "http://www.w3.org/Graphics/SVG/1.1/DTD/svg11.dtd"><svg t="1596451886148" class="icon" viewBox="0 0 1024 1024" version="1.1" xmlns="http://www.w3.org/2000/svg" p-id="1926" xmlns:xlink="http://www.w3.org/1999/xlink" width="200" height="200"><defs><style type="text/css"></style></defs><path d="M969.045333 348.501333l-122.88-302.421333A73.728 73.728 0 0 0 778.24 0h-10.24L443.733333 45.397333a73.728 73.728 0 0 0-53.589333 36.181334L59.392 656.042667a73.728 73.728 0 0 0 26.965333 100.693333l446.122667 257.365333a73.728 73.728 0 0 0 100.693333-26.965333l331.434667-574.122667a73.728 73.728 0 0 0 4.437333-64.512zM569.344 950.272L123.221333 692.906667l331.434667-574.464 323.242667-44.714667 122.88 301.738667z" p-id="1927"></path><path d="M714.069333 184.32a110.250667 110.250667 0 1 0 40.277334 150.869333 109.909333 109.909333 0 0 0-40.277334-150.869333z m-23.210666 114.005333a36.864 36.864 0 1 1 3.754666-27.989333 36.522667 36.522667 0 0 1-3.754666 27.989333z" p-id="1928"></path></svg>