<?xml version="1.0" standalone="no"?><!DOCTYPE svg PUBLIC "-//W3C//DTD SVG 1.1//EN" "http://www.w3.org/Graphics/SVG/1.1/DTD/svg11.dtd"><svg t="1596451967140" class="icon" viewBox="0 0 1024 1024" version="1.1" xmlns="http://www.w3.org/2000/svg" p-id="5480" xmlns:xlink="http://www.w3.org/1999/xlink" width="200" height="200"><defs><style type="text/css"></style></defs><path d="M867.88773781 800.73545639l-668.60878409 0c-19.12069501 0-34.58437564-15.48244006-34.58437564-34.58380215l0-553.3104809c0-19.10051834 15.46368064-34.57368374 34.58437564-34.57368374 19.08190723 0 34.58437564 15.47316541 34.58437564 34.57368374l0 438.03957156 0 80.68795011 634.02440763 0c19.08190723 0 34.58521939 15.48244006 34.58521939 34.58295923C902.47211345 785.25217257 886.96880211 800.73545639 867.88773781 800.73545639M787.17708803 696.98573578l-69.16875211 0c-19.08190723 0-34.58437564-15.47316541-34.58437564-34.57368375L683.42396028 420.33977081c0-19.11063675 15.50246842-34.58295922 34.58437564-34.58295922l69.16875211 0c19.12153793 0 34.58521939 15.47316541 34.5852194 34.58295923l0 242.07228121C821.76146368 681.51257037 806.29862596 696.98573578 787.17708803 696.98573578M591.21104354 696.98573578l-69.1687521 0c-19.10130112 0-34.58521939-15.47316541-34.5852194-34.57368375L487.45707204 282.00793472c0-19.10051834 15.48391827-34.58295922 34.58521939-34.58295923l69.16875211 0c19.10045819 0 34.58437564 15.48244006 34.58437563 34.58295923l0 380.40411731C625.79541917 681.51257037 610.31234465 696.98573578 591.21104354 696.98573578M395.24499903 696.98573578l-69.1687521 0c-19.12069501 0-34.58437564-15.47316541-34.58437563-34.57368375l0-69.16591763c0-19.09967542 15.46368064-34.58295922 34.58437563-34.58295922l69.16875211 0c19.10130112 0 34.58521939 15.48244006 34.58521939 34.58295922l0 69.16591763C429.82937468 681.51257037 414.34630016 696.98573578 395.24499903 696.98573578" p-id="5481"></path></svg>